<svg xmlns="http://www.w3.org/2000/svg" viewBox="0 0 300 64" role="img" aria-label="Tinkhaven Typing">
  <title>Tinkhaven Typing</title>

    <polygon points="40.00,36.30 50.00,26.30 50.00,39.30 40.00,49.30" fill="#98907f"/>
    <polygon points="2.00,36.30 40.00,36.30 40.00,49.30 2.00,49.30" fill="#b9b0a2"/>
    <polygon points="2.00,21.30 12.00,11.30 50.00,11.30 40.00,21.30" fill="#4a86e8"/>
    <ellipse cx="11.75" cy="18.60" rx="3.6" ry="2.0" fill="#9a9ae0"/><rect x="8.15" y="16.30" width="7.2" height="2.3" fill="#9a9ae0"/><ellipse cx="11.75" cy="16.30" rx="3.6" ry="2.0" fill="#c8c8ff"/>
    <ellipse cx="21.25" cy="18.60" rx="3.6" ry="2.0" fill="#d09090"/><rect x="17.65" y="16.30" width="7.2" height="2.3" fill="#d09090"/><ellipse cx="21.25" cy="16.30" rx="3.6" ry="2.0" fill="#f2b6b6"/>
    <ellipse cx="30.75" cy="18.60" rx="3.6" ry="2.0" fill="#8ad2a2"/><rect x="27.15" y="16.30" width="7.2" height="2.3" fill="#8ad2a2"/><ellipse cx="30.75" cy="16.30" rx="3.6" ry="2.0" fill="#b6f2c6"/>
    <ellipse cx="40.25" cy="18.60" rx="3.6" ry="2.0" fill="#d0d068"/><rect x="36.65" y="16.30" width="7.2" height="2.3" fill="#d0d068"/><ellipse cx="40.25" cy="16.30" rx="3.6" ry="2.0" fill="#f2f296"/>
    <polygon points="40.00,21.30 50.00,11.30 50.00,26.30 40.00,36.30" fill="#1f4f9c"/>
    <polygon points="2.00,21.30 40.00,21.30 40.00,36.30 2.00,36.30" fill="#2f6fd0"/>
    <text x="60" y="34" font-family="system-ui,-apple-system,'Segoe UI',Helvetica,Arial,'DejaVu Sans',sans-serif" font-size="21" font-weight="650" letter-spacing="-0.25" fill="#f2ece4" text-anchor="start">Tinkhaven Typing</text>
    <text x="60" y="53.3" font-family="system-ui,-apple-system,'Segoe UI',Helvetica,Arial,'DejaVu Sans',sans-serif" font-size="8.82" fill="#f2ece4" opacity=".62" text-anchor="start">Learn to touch type</text>
</svg>
